<?xml version="1.0" ?><!DOCTYPE svg  PUBLIC '-//W3C//DTD SVG 1.1//EN'  'http://www.w3.org/Graphics/SVG/1.1/DTD/svg11.dtd'><svg enable-background="new 0 0 64 64" height="64px" id="Layer_1" version="1.1" viewBox="0 0 64 64" width="64px" xml:space="preserve" xmlns="http://www.w3.org/2000/svg" xmlns:xlink="http://www.w3.org/1999/xlink"><path d="M56.088,21.135c-0.371-1.647-1.188-2.435-2.914-2.81c-0.982-0.216-1.894-0.059-2.625,0.068  c-0.928,0.158-1.74,0.781-2.23,1.709c-0.337,0.638-0.453,1.346-0.39,2.027c-2.03,0.268-4.158,0.335-6.205-0.52  c-2.05-0.855-4.806-1.753-7.953-1.097c-0.741,0.157-1.051-0.113-1.236-0.365c-0.895-1.222-2.394-1.782-4.116-1.531  c-1.32,0.188-2.6,0.547-3.678,0.872c-2.857,0.86-5.273,1.131-7.575,0.864c-0.024-0.091-0.054-0.181-0.076-0.271  c-0.203-0.816-0.432-1.741-1.371-2.476c-0.96-0.751-2.375-0.965-3.604-0.541c-1.141,0.393-1.964,1.291-2.256,2.464  c-0.323,1.296-0.511,2.629-0.558,3.963c-0.06,1.731-0.144,3.463-0.229,5.193c-0.088,1.797-0.175,3.593-0.235,5.39  c-0.059,1.718,0.175,3.385,2.264,3.947c0.396,0.107,0.791,0.16,1.179,0.16c1.476-0.001,2.857-0.757,3.842-2.15  c0.256-0.361,0.432-0.721,0.559-1.075c0.357,0.114,0.74,0.226,1.134,0.299c-0.056,0.113-0.125,0.232-0.217,0.381  c-0.063,0.102-0.127,0.204-0.187,0.31c-0.483,0.854-0.612,1.872-0.354,2.794c0.208,0.743,0.655,1.338,1.258,1.675  c0.319,0.177,0.629,0.238,0.918,0.238c0.38,0,0.725-0.106,1.009-0.194c0.092-0.028,0.173-0.049,0.255-0.071  c0.063,0.115,0.129,0.229,0.172,0.356c0.4,1.162,1.117,1.911,2.02,2.107c0.152,0.032,0.306,0.049,0.46,0.049  c0.148,0,0.296-0.024,0.445-0.055c0.539,0.956,1.341,1.603,2.319,1.802c0.208,0.042,0.42,0.063,0.633,0.063  c0.412,0,0.826-0.088,1.229-0.24c0.09,1.137,0.877,1.989,2.009,2.139c0.597,0.076,1.176,0.013,1.695-0.179  c0.66,1.076,1.444,1.65,2.336,1.709c0.051,0.003,0.1,0.005,0.15,0.005c0.988,0,1.93-0.65,2.799-1.929  c0.055-0.078,0.091-0.154,0.119-0.221c0.047-0.052,0.083-0.105,0.123-0.158c0.135,0.018,0.271,0.03,0.404,0.053  c0.33,0.055,0.688,0.114,1.076,0.114c0.205,0,0.418-0.017,0.641-0.06c1.4-0.267,1.941-1.195,2.284-2.074  c0.026,0.001,0.054,0.007,0.079,0.007c0.688,0,1.307-0.188,1.813-0.555c0.634-0.458,1.067-1.2,1.262-2.095  c0.283,0.05,0.566,0.102,0.85,0.134c0.12,0.014,0.237,0.021,0.353,0.021c0.631,0,1.166-0.211,1.529-0.611  c0.406-0.448,0.546-1.08,0.395-1.78c-0.088-0.408-0.197-0.871-0.378-1.332c0.684-0.244,1.444-0.437,1.901-0.444  c0.039,0.116,0.071,0.237,0.105,0.357c0.176,0.636,0.418,1.507,1.449,1.903c0.695,0.267,1.4,0.344,2.084,0.344  c0.498,0,0.986-0.041,1.447-0.08l0.118-0.011c0.993-0.082,1.675-0.904,1.697-2.044c0.026-1.313,0.085-2.627,0.144-3.94  c0.094-2.103,0.191-4.275,0.152-6.423c-0.009-0.506-0.004-1.014,0.002-1.521C56.428,24.278,56.443,22.706,56.088,21.135z   M14.896,35.166c-0.878,1.243-2.119,1.756-3.406,1.408c-0.742-0.199-1.223-0.478-1.155-2.448c0.06-1.79,0.147-3.578,0.234-5.367  c0.085-1.738,0.169-3.476,0.229-5.215c0.043-1.229,0.217-2.457,0.514-3.651c0.218-0.873,0.821-1.248,1.289-1.408  c0.256-0.088,0.531-0.131,0.804-0.131c0.516,0,1.027,0.151,1.388,0.435c0.532,0.416,0.667,0.963,0.839,1.655  c0.046,0.185,0.092,0.37,0.146,0.555c-0.324,0.523-0.319,1.093-0.314,1.53l0.001,0.129l0,3.666  c-0.001,2.225-0.003,4.448,0.008,6.674C15.478,33.803,15.382,34.479,14.896,35.166z M19.8,39.026  c-0.419,0.128-0.594,0.168-0.756,0.077c-0.25-0.14-0.443-0.412-0.543-0.769c-0.149-0.532-0.069-1.149,0.214-1.648  c0.049-0.087,0.103-0.173,0.156-0.258c0.198-0.318,0.429-0.701,0.517-1.177c0.678-0.164,1.336-0.583,1.902-1.456  c0.066-0.072,0.343-0.184,0.509-0.25l0.256-0.106c0.6-0.258,1.596-0.046,1.741,0.129c0.084,0.323,0.247,0.568,0.377,0.765  c0.061,0.092,0.144,0.221,0.152,0.272c-1.098,0.913-1.896,2.021-2.667,3.093l-0.375,0.52c-0.081,0.11-0.159,0.239-0.238,0.372  c-0.041,0.067-0.099,0.165-0.148,0.238C20.475,38.832,20.107,38.931,19.8,39.026z M23.007,41.386c-0.365-0.08-0.7-0.491-0.918-1.125  c-0.039-0.116-0.103-0.225-0.157-0.337c0.17-0.185,0.299-0.396,0.4-0.565c0.054-0.09,0.107-0.181,0.162-0.256l0.382-0.527  c0.75-1.042,1.458-2.026,2.409-2.818c0.646-0.534,1.249-0.734,1.889-0.643c0.226,0.034,0.382,0.125,0.488,1.039  c0.024,0.21,0.093,0.38,0.162,0.531c0,0-0.001,0.001-0.001,0.001c-1.113,1.304-2.374,2.781-3.67,4.146  C23.745,41.262,23.338,41.458,23.007,41.386z M26.211,43.178c-0.525-0.107-0.972-0.474-1.294-1.021  c0.109-0.093,0.219-0.181,0.323-0.291c1.323-1.395,2.598-2.889,3.723-4.207c0.269-0.315,0.636-0.471,1.021-0.446  c0.447,0.032,0.857,0.294,1.127,0.72c0.217,0.342,0.26,0.739,0.31,1.2c0.018,0.167,0.038,0.336,0.064,0.508  c-0.336,0.13-0.702,0.339-1.095,0.664c-0.48,0.397-0.904,0.843-1.315,1.274c-0.307,0.322-0.613,0.645-0.941,0.942  C27.525,43.073,26.844,43.305,26.211,43.178z M31.643,44.551c-0.56,0.638-1.353,0.608-1.664,0.571  c-0.262-0.035-0.703-0.188-0.72-0.831c-0.006-0.247-0.078-0.451-0.149-0.634c0.011-0.01,0.022-0.016,0.033-0.025  c0.356-0.322,0.689-0.671,1.021-1.02c0.398-0.418,0.774-0.813,1.185-1.153c0.333-0.276,0.815-0.582,1.223-0.485  c0.332,0.081,0.656,0.455,0.912,1.051c0.044,0.104,0.073,0.237,0.1,0.378c-0.124,0.074-0.248,0.148-0.375,0.262  c-0.409,0.363-0.723,0.788-1.026,1.198C32.008,44.097,31.835,44.332,31.643,44.551z M35.744,45.017  c-0.143,0.144-0.205,0.3-0.216,0.349c-0.571,0.842-1.172,1.31-1.614,1.277c-0.377-0.024-0.8-0.402-1.189-1.052  c0.015-0.017,0.03-0.033,0.044-0.05c0.22-0.249,0.42-0.519,0.619-0.787c0.27-0.365,0.523-0.709,0.816-0.969  c0.229-0.208,0.327-0.293,1.112,0.423l0.104,0.095c0.146,0.132,0.447,0.406,0.469,0.512C35.889,44.815,35.873,44.885,35.744,45.017z   M46.186,39.763c-0.071,0.078-0.266,0.147-0.598,0.108c-0.336-0.038-0.668-0.099-1-0.158l-0.156-0.027  c-0.216-0.452-0.549-0.813-0.829-1.11c-0.122-0.13-0.243-0.258-0.353-0.392c-0.613-0.76-1.281-1.48-1.926-2.177  c-1.092-1.179-2.122-2.292-2.939-3.597c-0.221-0.35-0.684-0.456-1.034-0.237c-0.351,0.22-0.457,0.683-0.237,1.034  c0.893,1.424,2.02,2.642,3.11,3.819c0.628,0.678,1.278,1.38,1.86,2.101c0.132,0.162,0.279,0.32,0.428,0.478  c0.484,0.513,0.69,0.776,0.633,1.143c-0.098,0.611-0.354,1.095-0.721,1.36c-0.288,0.209-0.667,0.29-1.115,0.256  c-0.174-0.262-0.398-0.452-0.555-0.578c-0.082-0.066-0.166-0.131-0.237-0.207L39.876,40.9c-1.681-1.774-3.269-3.45-4.425-5.506  c-0.203-0.361-0.66-0.489-1.021-0.286s-0.49,0.66-0.287,1.021c1.248,2.218,2.975,4.04,4.645,5.803l0.637,0.674  c0.118,0.126,0.252,0.237,0.387,0.346c0.09,0.073,0.228,0.185,0.248,0.213c0,0.001,0.002,0.043-0.038,0.146  c-0.304,0.784-0.567,1.045-1.175,1.161c-0.381,0.074-0.756,0.011-1.188-0.062c-0.117-0.02-0.237-0.028-0.354-0.045  c-0.164-0.51-0.56-0.887-0.874-1.172l-0.505,0.555l0.401-0.649c-0.284-0.258-0.72-0.651-1.247-0.848  c-0.045-0.256-0.098-0.534-0.218-0.814c-0.549-1.283-1.302-1.741-1.864-1.897c-0.035-0.181-0.062-0.368-0.084-0.569  c-0.062-0.565-0.131-1.205-0.534-1.841c-0.52-0.82-1.375-1.349-2.289-1.413c-0.328-0.024-0.648,0.03-0.956,0.124  c-0.085-0.688-0.326-1.995-1.737-2.209c-0.604-0.088-1.196-0.005-1.773,0.215c-0.067-0.129-0.138-0.246-0.201-0.341  c-0.08-0.12-0.155-0.233-0.175-0.312c-0.078-0.304-0.302-0.729-0.932-1.037c-0.836-0.41-2.04-0.448-2.86-0.092l-0.215,0.089  c-0.404,0.162-0.906,0.363-1.201,0.815c-0.755,1.16-1.586,0.982-3.079,0.503c0.008-0.165,0.013-0.327,0.012-0.483  c-0.011-2.222-0.009-4.442-0.008-6.664l0-3.67l-0.001-0.141c-0.003-0.333,0.004-0.528,0.063-0.667  c2.497,0.289,5.1-0.005,8.145-0.922c1.024-0.309,2.236-0.648,3.458-0.823c0.625-0.089,1.734-0.094,2.502,0.72l-0.561,0.33  c-1.185,0.694-2.37,1.39-3.543,2.102c-0.667,0.405-1.279,0.845-1.816,1.305l-0.117,0.099c-0.51,0.43-1.364,1.149-1.108,2.338  c0.259,1.209,1.864,2.255,3.02,2.315c1.527,0.069,2.932-0.347,4.108-0.771l0.593-0.218c1.001-0.369,1.948-0.719,2.952-0.868  c2.064-0.309,3.771,0.532,5.542,2.722c0.862,1.066,1.653,2.239,2.419,3.374c0.902,1.34,1.838,2.726,2.922,3.993  c0.402,0.471,0.545,1.13,0.683,1.767C46.271,39.519,46.256,39.685,46.186,39.763z M46.517,36.352  c-0.958-1.15-1.822-2.411-2.652-3.643c-0.782-1.161-1.593-2.361-2.496-3.479c-1.331-1.646-3.491-3.771-6.93-3.263  c-1.156,0.173-2.22,0.565-3.25,0.945l-0.583,0.214c-1.088,0.394-2.27,0.752-3.522,0.685c-0.619-0.032-1.543-0.729-1.63-1.132  c-0.057-0.266,0.094-0.442,0.608-0.876l0.125-0.106c0.476-0.407,1.021-0.799,1.62-1.162c1.167-0.709,2.345-1.399,3.523-2.09  l1.028-0.604c0.502,0.212,1.081,0.275,1.718,0.141c2.141-0.446,4.319-0.135,7.069,1.013c1.461,0.609,2.924,0.817,4.357,0.817  c0.96,0,1.9-0.102,2.823-0.23c0.425,1.137,0.486,2.319,0.53,3.566l0.027,0.713c0.037,0.817,0.064,1.634,0.092,2.451  c0.061,1.772,0.121,3.601,0.289,5.409C48.3,35.72,47.104,36.123,46.517,36.352z M54.914,25.784  c-0.006,0.522-0.011,1.044-0.002,1.563c0.039,2.1-0.058,4.25-0.15,6.328c-0.059,1.325-0.118,2.651-0.146,3.978  c-0.005,0.253-0.065,0.559-0.322,0.58l-0.121,0.01c-1.021,0.088-1.984,0.17-2.864-0.169c-0.301-0.115-0.383-0.327-0.544-0.905  c-0.046-0.165-0.096-0.345-0.161-0.525c0.097-0.189,0.214-0.453,0.184-0.771c-0.186-1.857-0.249-3.765-0.311-5.609  c-0.028-0.824-0.057-1.647-0.094-2.47l-0.027-0.696c-0.051-1.476-0.104-3.002-0.803-4.528c-0.245-0.533-0.211-1.193,0.092-1.765  c0.266-0.505,0.699-0.854,1.158-0.932c0.635-0.11,1.355-0.234,2.053-0.082c1.162,0.253,1.526,0.598,1.77,1.676  C54.941,22.867,54.928,24.284,54.914,25.784z"/></svg>