<svg width="32" height="35" xmlns="http://www.w3.org/2000/svg">

 <g>
  <title>background</title>
  <rect fill="none" id="canvas_background" height="37" width="34" y="-1" x="-1"/>
 </g>
 <g>
  <title>Layer 1</title>
  <path stroke="null" id="svg_1" d="m26.690441,9.945478q0.633233,0.892429 0.284955,2.019708l-4.35348,14.184926q-0.300786,1.002026 -1.211059,1.68309t-1.939278,0.681064l-14.611863,0q-1.218974,0 -2.350879,-0.837631t-1.575168,-2.05885q-0.37994,-1.048996 -0.031662,-1.988395q0,-0.062627 0.047493,-0.42273t0.063323,-0.579296q0.015831,-0.125253 -0.047493,-0.336618t-0.047493,-0.305305q0.031662,-0.172223 0.126647,-0.32879t0.261209,-0.367931t0.261209,-0.367931q0.364109,-0.594953 0.712388,-1.432584t0.474925,-1.432584q0.047493,-0.156567 0.007915,-0.4697t-0.007915,-0.438386q0.047493,-0.172223 0.269124,-0.438386t0.269124,-0.360103q0.332448,-0.563639 0.664895,-1.440412t0.395771,-1.409099q0.015831,-0.14091 -0.039577,-0.501013t0.007915,-0.438386q0.063323,-0.203536 0.348278,-0.477528t0.348278,-0.352275q0.300786,-0.407073 0.672811,-1.322987t0.435348,-1.510867q0.015831,-0.125253 -0.047493,-0.399245t-0.031662,-0.414901q0.031662,-0.125253 0.142478,-0.28182t0.284955,-0.360103t0.269124,-0.32879q0.126647,-0.18788 0.261209,-0.477528t0.237463,-0.547983t0.253293,-0.563639t0.308701,-0.501013t0.419517,-0.367931t0.56991,-0.180051t0.751965,0.086112l-0.015831,0.04697q0.601572,-0.14091 0.807373,-0.14091l12.047267,0q1.171482,0 1.804715,0.876772t0.284955,2.035365l-4.337649,14.184926q-0.56991,1.863142 -1.131905,2.403296t-2.034263,0.540154l-13.756997,0q-0.427433,0 -0.601572,0.23485q-0.174139,0.250506 -0.015831,0.673236q0.37994,1.095966 2.279641,1.095966l14.611863,0q0.459094,0 0.886527,-0.242678t0.554079,-0.649751l4.749251,-15.453115q0.110816,-0.344446 0.079154,-0.892429q0.601572,0.23485 0.934019,0.673236zm-16.844011,0.031313q-0.063323,0.203536 0.031662,0.352275t0.316617,0.148738l9.625149,0q0.205801,0 0.403686,-0.148738t0.261209,-0.352275l0.332448,-1.002026q0.063323,-0.203536 -0.031662,-0.352275t-0.316617,-0.148738l-9.625149,0q-0.205801,0 -0.403686,0.148738t-0.261209,0.352275l-0.332448,1.002026zm-1.313959,4.008103q-0.063323,0.203536 0.031662,0.352275t0.316617,0.148738l9.625149,0q0.205801,0 0.403686,-0.148738t0.261209,-0.352275l0.332448,-1.002026q0.063323,-0.203536 -0.031662,-0.352275t-0.316617,-0.148738l-9.625149,0q-0.205801,0 -0.403686,0.148738t-0.261209,0.352275l-0.332448,1.002026z"/>
 </g>
</svg>